<svg width="1013" height="281" viewBox="0 0 1013 281" fill="none" xmlns="http://www.w3.org/2000/svg">
<path d="M103.005 61.9792L120.21 82.1275C66.5571 119.481 52.7477 146.647 52.7477 176.983C52.7477 200.074 62.0294 224.071 89.422 255.538L64.9724 272.744C34.1841 235.39 21.9593 205.507 21.9593 177.436C21.9593 139.403 43.4659 105.219 103.005 61.9792ZM184.46 202.564C197.816 202.564 210.494 175.624 210.494 155.023C210.494 142.346 205.74 137.139 199.854 137.139C193.741 137.139 184.46 142.346 176.31 149.59L166.575 198.942C174.046 201.432 180.837 202.564 184.46 202.564ZM154.124 263.009L123.109 265.273C137.145 191.471 146.653 145.289 150.955 111.558L181.517 109.746L178.8 128.763C191.251 116.991 205.513 107.709 217.059 107.709C230.642 107.709 241.735 120.16 241.735 145.742C241.735 186.265 214.795 228.599 169.744 228.599C167.028 228.599 164.085 228.372 160.915 228.146L154.124 263.009ZM296.929 198.716C302.815 198.716 311.87 193.962 320.246 186.717C322.284 176.53 326.585 154.344 329.754 138.045C322.737 135.554 316.398 134.422 312.549 134.422C299.192 134.422 287.42 162.721 287.42 185.359C287.42 195.32 291.722 198.716 296.929 198.716ZM366.429 215.015C329.302 237.201 317.982 229.731 318.888 205.96C305.984 218.638 291.269 228.372 279.271 228.372C265.914 228.372 255.727 217.053 255.727 193.056C255.727 150.949 282.44 108.162 328.849 108.162C339.715 108.162 352.846 109.973 364.844 113.595L349.45 193.283C347.639 202.338 348.318 202.564 363.939 199.621L366.429 215.015ZM487.953 217.506C430.678 243.54 415.284 224.297 450.826 145.289C443.808 146.874 436.564 148.232 429.546 148.685C420.717 163.173 406.908 178.794 390.155 195.094L379.289 183.548C391.74 169.738 401.022 158.419 407.587 147.326C398.531 145.063 392.645 140.308 392.645 132.385C392.645 118.575 408.945 102.729 425.697 102.729C434.3 102.729 440.186 108.388 440.186 118.123C440.186 119.481 440.186 120.839 439.96 122.198C453.543 119.481 467.579 114.727 476.86 109.746L492.028 116.312C454.448 205.507 458.297 207.998 486.369 201.659L487.953 217.506ZM545.864 198.716C551.75 198.716 560.805 193.962 569.181 186.717C571.219 176.53 575.52 154.344 578.69 138.045C571.672 135.554 565.333 134.422 561.484 134.422C548.128 134.422 536.356 162.721 536.356 185.359C536.356 195.32 540.657 198.716 545.864 198.716ZM615.364 215.015C578.237 237.201 566.917 229.731 567.823 205.96C554.919 218.638 540.204 228.372 528.206 228.372C514.849 228.372 504.662 217.053 504.662 193.056C504.662 150.949 531.375 108.162 577.784 108.162C588.65 108.162 601.781 109.973 613.779 113.595L598.385 193.283C596.574 202.338 597.253 202.564 612.874 199.621L615.364 215.015ZM740.058 220.901C712.892 230.862 702.252 229.731 702.252 216.147C702.252 203.243 715.608 153.665 715.608 143.704C715.608 140.308 714.703 138.724 711.533 138.724C708.817 138.724 705.647 139.856 702.252 142.346L686.178 225.429H665.124L679.387 151.628C681.198 143.025 681.424 138.724 676.444 138.724C673.501 138.724 669.878 140.082 666.256 143.025C659.918 177.209 650.409 225.429 650.409 225.429H621.206C631.619 171.323 636.6 145.289 642.259 111.784L670.105 110.199L668.973 121.518C677.349 112.463 685.725 107.935 692.743 107.935C700.893 107.935 704.968 112.916 704.742 124.235C715.155 113.369 725.569 107.935 734.398 107.935C743.454 107.935 747.755 112.916 747.755 123.556C747.755 142.799 731.682 192.377 731.682 202.791C731.682 204.828 733.493 205.734 737.794 205.281L740.058 220.901ZM856.602 189.434C856.602 209.809 837.359 228.372 771.707 227.693L772.387 199.395C812.23 201.432 825.361 199.169 825.361 191.019C825.361 182.869 813.589 172.681 803.175 161.136C793.44 167.475 781.442 174.04 767.18 181.058L760.615 167.022C774.424 158.646 784.838 151.854 792.309 145.968C790.045 141.44 788.46 136.686 788.46 131.706C788.46 114.048 806.118 103.86 822.87 103.86C842.34 103.86 850.716 119.028 828.077 141.667C837.812 155.023 856.602 170.87 856.602 189.434ZM890.063 272.517L872.857 252.369C926.511 215.015 940.32 187.849 940.32 157.514C940.32 134.422 931.038 110.426 903.646 78.9581L928.095 61.7528C958.884 99.1064 971.108 128.989 971.108 157.061C971.108 195.094 949.602 229.278 890.063 272.517Z" fill="url(#paint0_diamond_43_17)"/>
<path d="M120.005 53.55L137.21 73.6983C83.5572 111.052 69.7477 138.218 69.7477 168.554C69.7477 191.645 79.0295 215.642 106.422 247.109L81.9725 264.314C51.1841 226.961 38.9593 197.078 38.9593 169.006C38.9593 130.974 60.4659 96.7896 120.005 53.55ZM201.46 194.135C214.816 194.135 227.494 167.195 227.494 146.594C227.494 133.917 222.74 128.71 216.854 128.71C210.741 128.71 201.46 133.917 193.31 141.161L183.575 190.513C191.046 193.003 197.837 194.135 201.46 194.135ZM171.124 254.58L140.109 256.844C154.145 183.042 163.653 136.86 167.955 103.128L198.517 101.317L195.8 120.334C208.251 108.562 222.513 99.2798 234.059 99.2798C247.642 99.2798 258.735 111.731 258.735 137.312C258.735 177.835 231.795 220.169 186.745 220.169C184.028 220.169 181.085 219.943 177.916 219.717L171.124 254.58ZM313.929 190.287C319.815 190.287 328.87 185.532 337.246 178.288C339.284 168.101 343.585 145.915 346.755 129.615C339.737 127.125 333.398 125.993 329.549 125.993C316.193 125.993 304.421 154.291 304.421 176.93C304.421 186.891 308.722 190.287 313.929 190.287ZM383.429 206.586C346.302 228.772 334.982 221.301 335.888 197.531C322.984 210.208 308.269 219.943 296.271 219.943C282.914 219.943 272.727 208.624 272.727 184.627C272.727 142.519 299.44 99.7326 345.849 99.7326C356.715 99.7326 369.846 101.544 381.844 105.166L366.45 184.853C364.639 193.909 365.318 194.135 380.939 191.192L383.429 206.586ZM504.953 209.077C447.678 235.111 432.284 215.868 467.826 136.86C460.808 138.444 453.564 139.803 446.546 140.255C437.717 154.744 423.908 170.365 407.155 186.664L396.289 175.119C408.74 161.309 418.022 149.99 424.587 138.897C415.531 136.633 409.645 131.879 409.645 123.956C409.645 110.146 425.945 94.2993 442.698 94.2993C451.3 94.2993 457.186 99.959 457.186 109.694C457.186 111.052 457.186 112.41 456.96 113.768C470.543 111.052 484.579 106.298 493.861 101.317L509.028 107.882C471.448 197.078 475.297 199.568 503.369 193.23L504.953 209.077ZM562.864 190.287C568.75 190.287 577.805 185.532 586.181 178.288C588.219 168.101 592.52 145.915 595.69 129.615C588.672 127.125 582.333 125.993 578.484 125.993C565.128 125.993 553.356 154.291 553.356 176.93C553.356 186.891 557.657 190.287 562.864 190.287ZM632.364 206.586C595.237 228.772 583.918 221.301 584.823 197.531C571.919 210.208 557.204 219.943 545.206 219.943C531.849 219.943 521.662 208.624 521.662 184.627C521.662 142.519 548.375 99.7326 594.784 99.7326C605.651 99.7326 618.781 101.544 630.779 105.166L615.385 184.853C613.574 193.909 614.253 194.135 629.874 191.192L632.364 206.586ZM757.058 212.472C729.892 222.433 719.252 221.301 719.252 207.718C719.252 194.814 732.608 145.236 732.608 135.275C732.608 131.879 731.703 130.295 728.533 130.295C725.817 130.295 722.647 131.426 719.252 133.917L703.178 217H682.124L696.387 143.198C698.198 134.596 698.424 130.295 693.444 130.295C690.501 130.295 686.878 131.653 683.256 134.596C676.918 168.78 667.409 217 667.409 217H638.206C648.619 162.894 653.6 136.86 659.26 103.355L687.105 101.77L685.973 113.089C694.349 104.034 702.725 99.5062 709.743 99.5062C717.893 99.5062 721.968 104.487 721.742 115.806C732.156 104.939 742.569 99.5062 751.398 99.5062C760.454 99.5062 764.755 104.487 764.755 115.127C764.755 134.369 748.682 183.948 748.682 194.362C748.682 196.399 750.493 197.305 754.794 196.852L757.058 212.472ZM873.602 181.005C873.602 201.379 854.359 219.943 788.708 219.264L789.387 190.966C829.23 193.003 842.361 190.739 842.361 182.589C842.361 174.44 830.589 164.252 820.175 152.707C810.44 159.045 798.442 165.611 784.18 172.629L777.615 158.593C791.424 150.216 801.838 143.425 809.309 137.539C807.045 133.011 805.46 128.257 805.46 123.277C805.46 105.619 823.118 95.4313 839.871 95.4313C859.34 95.4313 867.716 110.599 845.077 133.238C854.812 146.594 873.602 162.441 873.602 181.005ZM907.063 264.088L889.857 243.94C943.511 206.586 957.32 179.42 957.32 149.084C957.32 125.993 948.038 101.996 920.646 70.5289L945.095 53.3236C975.884 90.6772 988.108 120.56 988.108 148.632C988.108 186.664 966.602 220.849 907.063 264.088Z" fill="white"/>
<defs>
<radialGradient id="paint0_diamond_43_17" cx="0" cy="0" r="1" gradientUnits="userSpaceOnUse" gradientTransform="translate(498 144.429) scale(498 136)">
<stop stop-color="#00FFE0"/>
<stop offset="0.575" stop-color="#3DE3E6"/>
<stop offset="0.795" stop-color="#DA257C"/>
<stop offset="1" stop-color="#FF006B"/>
</radialGradient>
</defs>
</svg>
