<svg width="959" height="220" viewBox="0 0 959 220" fill="none" xmlns="http://www.w3.org/2000/svg">
<path d="M82.0051 8.97922L99.2104 29.1275C45.5571 66.481 31.7477 93.6472 31.7477 123.983C31.7477 147.074 41.0294 171.071 68.422 202.538L43.9724 219.744C13.1841 182.39 0.959297 152.507 0.959297 124.436C0.959297 86.4029 22.4659 52.2188 82.0051 8.97922Z" fill="url(#paint0_diamond_43_17)"/>
<path d="M163.46 149.564C176.816 149.564 189.494 122.625 189.494 102.023C189.494 89.3459 184.74 84.1391 178.854 84.1391C172.741 84.1391 163.46 89.3459 155.31 96.5902L145.575 145.942C153.046 148.432 159.837 149.564 163.46 149.564ZM133.124 210.009L102.109 212.273C116.145 138.471 125.653 92.2889 129.955 58.5575L160.517 56.7465L157.8 75.7628C170.251 63.9908 184.513 54.709 196.059 54.709C209.642 54.709 220.735 67.1602 220.735 92.7417C220.735 133.265 193.795 175.599 148.744 175.599C146.028 175.599 143.085 175.372 139.915 175.146L133.124 210.009Z" fill="url(#paint1_diamond_43_17)"/>
<path d="M275.929 145.716C281.815 145.716 290.87 140.962 299.246 133.717C301.284 123.53 305.585 101.344 308.754 85.0446C301.737 82.5544 295.398 81.4224 291.549 81.4224C278.192 81.4224 266.42 109.721 266.42 132.359C266.42 142.32 270.722 145.716 275.929 145.716ZM345.429 162.015C308.302 184.201 296.982 176.731 297.888 152.96C284.984 165.638 270.269 175.372 258.271 175.372C244.914 175.372 234.727 164.053 234.727 140.056C234.727 97.9485 261.44 55.1618 307.849 55.1618C318.715 55.1618 331.846 56.9728 343.844 60.595L328.45 140.283C326.639 149.338 327.318 149.564 342.939 146.621L345.429 162.015Z" fill="url(#paint2_diamond_43_17)"/>
<path d="M466.953 164.506C409.678 190.54 394.284 171.297 429.826 92.2889C422.808 93.8736 415.564 95.2319 408.546 95.6847C399.717 110.173 385.908 125.794 369.155 142.094L358.289 130.548C370.74 116.738 380.022 105.419 386.587 94.3264C377.531 92.0625 371.645 87.3084 371.645 79.385C371.645 65.5755 387.945 49.7285 404.697 49.7285C413.3 49.7285 419.186 55.3882 419.186 65.1227C419.186 66.481 419.186 67.8393 418.96 69.1976C432.543 66.481 446.579 61.7269 455.86 56.7465L471.028 63.3116C433.448 152.507 437.297 154.998 465.369 148.659L466.953 164.506Z" fill="url(#paint3_diamond_43_17)"/>
<path d="M524.864 145.716C530.75 145.716 539.805 140.962 548.181 133.717C550.219 123.53 554.52 101.344 557.69 85.0446C550.672 82.5544 544.333 81.4224 540.484 81.4224C527.128 81.4224 515.356 109.721 515.356 132.359C515.356 142.32 519.657 145.716 524.864 145.716ZM594.364 162.015C557.237 184.201 545.917 176.731 546.823 152.96C533.919 165.638 519.204 175.372 507.206 175.372C493.849 175.372 483.662 164.053 483.662 140.056C483.662 97.9485 510.375 55.1618 556.784 55.1618C567.65 55.1618 580.781 56.9728 592.779 60.595L577.385 140.283C575.574 149.338 576.253 149.564 591.874 146.621L594.364 162.015Z" fill="url(#paint4_diamond_43_17)"/>
<path d="M719.058 167.902C691.892 177.862 681.252 176.731 681.252 163.147C681.252 150.243 694.608 100.665 694.608 90.7042C694.608 87.3084 693.703 85.7237 690.533 85.7237C687.817 85.7237 684.647 86.8557 681.252 89.3459L665.178 172.429H644.124L658.387 98.6277C660.198 90.0251 660.424 85.7237 655.444 85.7237C652.501 85.7237 648.878 87.0821 645.256 90.0251C638.918 124.209 629.409 172.429 629.409 172.429H600.206C610.619 118.323 615.6 92.2889 621.259 58.7839L649.105 57.1992L647.973 68.5185C656.349 59.4631 664.725 54.9354 671.743 54.9354C679.893 54.9354 683.968 59.9159 683.742 71.2351C694.155 60.3686 704.569 54.9354 713.398 54.9354C722.454 54.9354 726.755 59.9159 726.755 70.556C726.755 89.7987 710.682 139.377 710.682 149.791C710.682 151.828 712.493 152.734 716.794 152.281L719.058 167.902Z" fill="url(#paint5_diamond_43_17)"/>
<path d="M835.602 136.434C835.602 156.809 816.359 175.372 750.707 174.693L751.387 146.395C791.23 148.432 804.361 146.169 804.361 138.019C804.361 129.869 792.589 119.681 782.175 108.136C772.44 114.475 760.442 121.04 746.18 128.058L739.615 114.022C753.424 105.646 763.838 98.8541 771.309 92.9681C769.045 88.4404 767.46 83.6863 767.46 78.7058C767.46 61.0478 785.118 50.8605 801.87 50.8605C821.34 50.8605 829.716 66.0283 807.077 88.6668C816.812 102.023 835.602 117.87 835.602 136.434Z" fill="url(#paint6_diamond_43_17)"/>
<path d="M869.063 219.517L851.857 199.369C905.511 162.015 919.32 134.849 919.32 104.514C919.32 81.4224 910.038 57.4256 882.646 25.9581L907.095 8.75284C937.884 46.1064 950.108 75.9892 950.108 104.061C950.108 142.094 928.602 176.278 869.063 219.517Z" fill="url(#paint7_diamond_43_17)"/>
<path d="M90.4344 0.54999L107.64 20.6983C53.9864 58.0518 40.1769 85.218 40.1769 115.554C40.1769 138.645 49.4587 162.642 76.8513 194.109L52.4017 211.314C21.6133 173.961 9.38853 144.078 9.38853 116.006C9.38853 77.9737 30.8951 43.7895 90.4344 0.54999Z" fill="white"/>
<path d="M171.889 141.135C185.245 141.135 197.923 114.195 197.923 93.5942C197.923 80.9167 193.169 75.7098 187.283 75.7098C181.171 75.7098 171.889 80.9167 163.739 88.161L154.004 137.513C161.475 140.003 168.267 141.135 171.889 141.135ZM141.553 201.58L110.538 203.844C124.574 130.042 134.082 83.8597 138.384 50.1283L168.946 48.3172L166.229 67.3336C178.68 55.5615 192.943 46.2798 204.488 46.2798C218.071 46.2798 229.164 58.7309 229.164 84.3124C229.164 124.835 202.224 167.169 157.174 167.169C154.457 167.169 151.514 166.943 148.345 166.717L141.553 201.58Z" fill="white"/>
<path d="M284.358 137.287C290.244 137.287 299.299 132.532 307.676 125.288C309.713 115.101 314.014 92.9151 317.184 76.6154C310.166 74.1251 303.827 72.9932 299.978 72.9932C286.622 72.9932 274.85 101.291 274.85 123.93C274.85 133.891 279.151 137.287 284.358 137.287ZM353.858 153.586C316.731 175.772 305.412 168.301 306.317 144.531C293.413 157.208 278.698 166.943 266.7 166.943C253.343 166.943 243.156 155.624 243.156 131.627C243.156 89.5193 269.869 46.7325 316.278 46.7325C327.145 46.7325 340.275 48.5436 352.273 52.1658L336.879 131.853C335.068 140.909 335.747 141.135 351.368 138.192L353.858 153.586Z" fill="white"/>
<path d="M475.383 156.076C418.107 182.111 402.713 162.868 438.255 83.8597C431.238 85.4444 423.993 86.8027 416.975 87.2555C408.146 101.744 394.337 117.365 377.584 133.664L366.718 122.119C379.169 108.309 388.451 96.99 395.016 85.8971C385.961 83.6333 380.075 78.8792 380.075 70.9557C380.075 57.1462 396.374 41.2993 413.127 41.2993C421.729 41.2993 427.615 46.9589 427.615 56.6935C427.615 58.0518 427.615 59.4101 427.389 60.7684C440.972 58.0518 455.008 53.2977 464.29 48.3172L479.458 54.8824C441.878 144.078 445.726 146.568 473.798 140.23L475.383 156.076Z" fill="white"/>
<path d="M533.293 137.287C539.179 137.287 548.234 132.532 556.611 125.288C558.648 115.101 562.949 92.9151 566.119 76.6154C559.101 74.1251 552.762 72.9932 548.913 72.9932C535.557 72.9932 523.785 101.291 523.785 123.93C523.785 133.891 528.086 137.287 533.293 137.287ZM602.793 153.586C565.666 175.772 554.347 168.301 555.252 144.531C542.348 157.208 527.633 166.943 515.635 166.943C502.278 166.943 492.091 155.624 492.091 131.627C492.091 89.5193 518.804 46.7325 565.213 46.7325C576.08 46.7325 589.21 48.5436 601.208 52.1658L585.814 131.853C584.003 140.909 584.682 141.135 600.303 138.192L602.793 153.586Z" fill="white"/>
<path d="M727.487 159.472C700.321 169.433 689.681 168.301 689.681 154.718C689.681 141.814 703.037 92.2359 703.037 82.275C703.037 78.8792 702.132 77.2945 698.963 77.2945C696.246 77.2945 693.077 78.4264 689.681 80.9167L673.607 164H652.554L666.816 90.1985C668.627 81.5958 668.853 77.2945 663.873 77.2945C660.93 77.2945 657.308 78.6528 653.685 81.5958C647.347 115.78 637.839 164 637.839 164H608.635C619.049 109.894 624.029 83.8597 629.689 50.3547L657.534 48.77L656.402 60.0893C664.778 51.0339 673.155 46.5061 680.173 46.5061C688.322 46.5061 692.397 51.4866 692.171 62.8059C702.585 51.9394 712.998 46.5061 721.827 46.5061C730.883 46.5061 735.184 51.4866 735.184 62.1267C735.184 81.3694 719.111 130.948 719.111 141.361C719.111 143.399 720.922 144.304 725.223 143.852L727.487 159.472Z" fill="white"/>
<path d="M844.031 128.005C844.031 148.379 824.788 166.943 759.137 166.264L759.816 137.966C799.66 140.003 812.79 137.739 812.79 129.589C812.79 121.44 801.018 111.252 790.604 99.7066C780.87 106.045 768.871 112.611 754.609 119.629L748.044 105.593C761.853 97.2164 772.267 90.4248 779.738 84.5388C777.474 80.0111 775.889 75.257 775.889 70.2766C775.889 52.6185 793.547 42.4312 810.3 42.4312C829.769 42.4312 838.145 57.599 815.507 80.2375C825.241 93.5942 844.031 109.441 844.031 128.005Z" fill="white"/>
<path d="M877.492 211.088L860.287 190.94C913.94 153.586 927.749 126.42 927.749 96.0845C927.749 72.9932 918.468 48.9964 891.075 17.5289L915.525 0.323608C946.313 37.6771 958.538 67.56 958.538 95.6317C958.538 133.664 937.031 167.849 877.492 211.088Z" fill="white"/>
<defs>
<radialGradient id="paint0_diamond_43_17" cx="0" cy="0" r="1" gradientUnits="userSpaceOnUse" gradientTransform="translate(479.748 110.034) scale(478.789 109.71)">
<stop stop-color="#00FFE0"/>
<stop offset="0.575" stop-color="#3DE3E6"/>
<stop offset="0.795" stop-color="#DA257C"/>
<stop offset="1" stop-color="#FF006B"/>
</radialGradient>
<radialGradient id="paint1_diamond_43_17" cx="0" cy="0" r="1" gradientUnits="userSpaceOnUse" gradientTransform="translate(479.748 110.034) scale(478.789 109.71)">
<stop stop-color="#00FFE0"/>
<stop offset="0.575" stop-color="#3DE3E6"/>
<stop offset="0.795" stop-color="#DA257C"/>
<stop offset="1" stop-color="#FF006B"/>
</radialGradient>
<radialGradient id="paint2_diamond_43_17" cx="0" cy="0" r="1" gradientUnits="userSpaceOnUse" gradientTransform="translate(479.748 110.034) scale(478.789 109.71)">
<stop stop-color="#00FFE0"/>
<stop offset="0.575" stop-color="#3DE3E6"/>
<stop offset="0.795" stop-color="#DA257C"/>
<stop offset="1" stop-color="#FF006B"/>
</radialGradient>
<radialGradient id="paint3_diamond_43_17" cx="0" cy="0" r="1" gradientUnits="userSpaceOnUse" gradientTransform="translate(479.748 110.034) scale(478.789 109.71)">
<stop stop-color="#00FFE0"/>
<stop offset="0.575" stop-color="#3DE3E6"/>
<stop offset="0.795" stop-color="#DA257C"/>
<stop offset="1" stop-color="#FF006B"/>
</radialGradient>
<radialGradient id="paint4_diamond_43_17" cx="0" cy="0" r="1" gradientUnits="userSpaceOnUse" gradientTransform="translate(479.748 110.034) scale(478.789 109.71)">
<stop stop-color="#00FFE0"/>
<stop offset="0.575" stop-color="#3DE3E6"/>
<stop offset="0.795" stop-color="#DA257C"/>
<stop offset="1" stop-color="#FF006B"/>
</radialGradient>
<radialGradient id="paint5_diamond_43_17" cx="0" cy="0" r="1" gradientUnits="userSpaceOnUse" gradientTransform="translate(479.748 110.034) scale(478.789 109.71)">
<stop stop-color="#00FFE0"/>
<stop offset="0.575" stop-color="#3DE3E6"/>
<stop offset="0.795" stop-color="#DA257C"/>
<stop offset="1" stop-color="#FF006B"/>
</radialGradient>
<radialGradient id="paint6_diamond_43_17" cx="0" cy="0" r="1" gradientUnits="userSpaceOnUse" gradientTransform="translate(479.748 110.034) scale(478.789 109.71)">
<stop stop-color="#00FFE0"/>
<stop offset="0.575" stop-color="#3DE3E6"/>
<stop offset="0.795" stop-color="#DA257C"/>
<stop offset="1" stop-color="#FF006B"/>
</radialGradient>
<radialGradient id="paint7_diamond_43_17" cx="0" cy="0" r="1" gradientUnits="userSpaceOnUse" gradientTransform="translate(479.748 110.034) scale(478.789 109.71)">
<stop stop-color="#00FFE0"/>
<stop offset="0.575" stop-color="#3DE3E6"/>
<stop offset="0.795" stop-color="#DA257C"/>
<stop offset="1" stop-color="#FF006B"/>
</radialGradient>
</defs>
</svg>
