<svg width="1006" height="281" viewBox="0 0 1006 281" fill="none" xmlns="http://www.w3.org/2000/svg">
<path d="M103.736 62.0924L120.941 82.2407C67.288 119.594 53.4785 146.76 53.4785 177.096C53.4785 200.187 62.7603 224.184 90.1529 255.652L65.7033 272.857C34.915 235.503 22.6902 205.62 22.6902 177.549C22.6902 139.516 44.1968 105.332 103.736 62.0924ZM185.19 202.677C198.547 202.677 211.225 175.738 211.225 155.137C211.225 142.459 206.471 137.252 200.585 137.252C194.472 137.252 185.19 142.459 177.041 149.703L167.306 199.055C174.777 201.546 181.568 202.677 185.19 202.677ZM154.855 263.122L123.84 265.386C137.876 191.585 147.384 145.402 151.685 111.671L182.247 109.86L179.531 128.876C191.982 117.104 206.244 107.822 217.79 107.822C231.373 107.822 242.466 120.273 242.466 145.855C242.466 186.378 215.526 228.712 170.475 228.712C167.759 228.712 164.816 228.485 161.646 228.259L154.855 263.122ZM297.66 198.829C303.546 198.829 312.601 194.075 320.977 186.831C323.015 176.643 327.316 154.457 330.485 138.158C323.467 135.668 317.129 134.536 313.28 134.536C299.923 134.536 288.151 162.834 288.151 185.472C288.151 195.433 292.453 198.829 297.66 198.829ZM367.16 215.129C330.033 237.314 318.713 229.844 319.619 206.073C306.715 218.751 292 228.485 280.001 228.485C266.645 228.485 256.457 217.166 256.457 193.169C256.457 151.062 283.171 108.275 329.58 108.275C340.446 108.275 353.577 110.086 365.575 113.708L350.181 193.396C348.37 202.451 349.049 202.677 364.669 199.734L367.16 215.129ZM488.684 217.619C431.409 243.653 416.015 224.41 451.557 145.402C444.539 146.987 437.295 148.345 430.277 148.798C421.448 163.286 407.638 178.907 390.886 195.207L380.019 183.661C392.471 169.852 401.752 158.532 408.318 147.44C399.262 145.176 393.376 140.422 393.376 132.498C393.376 118.689 409.676 102.842 426.428 102.842C435.031 102.842 440.917 108.501 440.917 118.236C440.917 119.594 440.917 120.952 440.691 122.311C454.274 119.594 468.31 114.84 477.591 109.86L492.759 116.425C455.179 205.62 459.028 208.111 487.1 201.772L488.684 217.619ZM546.595 198.829C552.481 198.829 561.536 194.075 569.912 186.831C571.95 176.643 576.251 154.457 579.42 138.158C572.402 135.668 566.064 134.536 562.215 134.536C548.858 134.536 537.086 162.834 537.086 185.472C537.086 195.433 541.388 198.829 546.595 198.829ZM616.095 215.129C578.968 237.314 567.648 229.844 568.554 206.073C555.65 218.751 540.935 228.485 528.937 228.485C515.58 228.485 505.393 217.166 505.393 193.169C505.393 151.062 532.106 108.275 578.515 108.275C589.381 108.275 602.512 110.086 614.51 113.708L599.116 193.396C597.305 202.451 597.984 202.677 613.605 199.734L616.095 215.129ZM740.789 221.015C713.622 230.976 702.982 229.844 702.982 216.261C702.982 203.357 716.339 153.778 716.339 143.817C716.339 140.422 715.434 138.837 712.264 138.837C709.548 138.837 706.378 139.969 702.982 142.459L686.909 225.542H665.855L680.118 151.741C681.929 143.138 682.155 138.837 677.174 138.837C674.231 138.837 670.609 140.195 666.987 143.138C660.648 177.322 651.14 225.542 651.14 225.542H621.937C632.35 171.436 637.331 145.402 642.99 111.897L670.836 110.312L669.704 121.632C678.08 112.576 686.456 108.049 693.474 108.049C701.624 108.049 705.699 113.029 705.473 124.348C715.886 113.482 726.3 108.049 735.129 108.049C744.184 108.049 748.486 113.029 748.486 123.669C748.486 142.912 732.412 192.49 732.412 202.904C732.412 204.941 734.224 205.847 738.525 205.394L740.789 221.015ZM857.333 189.547C857.333 209.922 838.09 228.485 772.438 227.806L773.118 199.508C812.961 201.546 826.092 199.282 826.092 191.132C826.092 182.982 814.32 172.795 803.906 161.249C794.171 167.588 782.173 174.153 767.911 181.171L761.345 167.135C775.155 158.759 785.569 151.967 793.039 146.081C790.776 141.554 789.191 136.799 789.191 131.819C789.191 114.161 806.849 103.974 823.601 103.974C843.07 103.974 851.447 119.141 828.808 141.78C838.543 155.137 857.333 170.984 857.333 189.547ZM890.793 272.63L873.588 252.482C927.241 215.129 941.051 187.962 941.051 157.627C941.051 134.536 931.769 110.539 904.377 79.0713L928.826 61.866C959.615 99.2195 971.839 129.102 971.839 157.174C971.839 195.207 950.333 229.391 890.793 272.63Z" fill="url(#paint0_diamond_43_8)"/>
<path d="M112.165 53.6632L129.37 73.8115C75.7172 111.165 61.9077 138.331 61.9077 168.667C61.9077 191.758 71.1895 215.755 98.5821 247.222L74.1325 264.428C43.3442 227.074 31.1194 197.191 31.1194 169.12C31.1194 131.087 52.626 96.9027 112.165 53.6632ZM193.62 194.248C206.976 194.248 219.654 167.308 219.654 146.707C219.654 134.03 214.9 128.823 209.014 128.823C202.901 128.823 193.62 134.03 185.47 141.274L175.735 190.626C183.206 193.116 189.997 194.248 193.62 194.248ZM163.284 254.693L132.269 256.957C146.305 183.155 155.813 136.973 160.115 103.242L190.677 101.43L187.96 120.447C200.411 108.675 214.673 99.393 226.219 99.393C239.802 99.393 250.895 111.844 250.895 137.426C250.895 177.949 223.955 220.283 178.905 220.283C176.188 220.283 173.245 220.056 170.076 219.83L163.284 254.693ZM306.089 190.4C311.975 190.4 321.03 185.646 329.406 178.401C331.444 168.214 335.745 146.028 338.915 129.729C331.897 127.238 325.558 126.106 321.709 126.106C308.353 126.106 296.581 154.405 296.581 177.043C296.581 187.004 300.882 190.4 306.089 190.4ZM375.589 206.699C338.462 228.885 327.143 221.414 328.048 197.644C315.144 210.322 300.429 220.056 288.431 220.056C275.074 220.056 264.887 208.737 264.887 184.74C264.887 142.632 291.6 99.8457 338.009 99.8457C348.875 99.8457 362.006 101.657 374.004 105.279L358.61 184.966C356.799 194.022 357.478 194.248 373.099 191.305L375.589 206.699ZM497.113 209.19C439.838 235.224 424.444 215.981 459.986 136.973C452.968 138.558 445.724 139.916 438.706 140.369C429.877 154.857 416.068 170.478 399.315 186.778L388.449 175.232C400.9 161.422 410.182 150.103 416.747 139.01C407.691 136.746 401.805 131.992 401.805 124.069C401.805 110.259 418.105 94.4125 434.858 94.4125C443.46 94.4125 449.346 100.072 449.346 109.807C449.346 111.165 449.346 112.523 449.12 113.882C462.703 111.165 476.739 106.411 486.021 101.43L501.188 107.996C463.608 197.191 467.457 199.682 495.529 193.343L497.113 209.19ZM555.024 190.4C560.91 190.4 569.965 185.646 578.341 178.401C580.379 168.214 584.68 146.028 587.85 129.729C580.832 127.238 574.493 126.106 570.644 126.106C557.288 126.106 545.516 154.405 545.516 177.043C545.516 187.004 549.817 190.4 555.024 190.4ZM624.524 206.699C587.397 228.885 576.078 221.414 576.983 197.644C564.079 210.322 549.364 220.056 537.366 220.056C524.009 220.056 513.822 208.737 513.822 184.74C513.822 142.632 540.535 99.8457 586.944 99.8457C597.811 99.8457 610.941 101.657 622.939 105.279L607.545 184.966C605.734 194.022 606.413 194.248 622.034 191.305L624.524 206.699ZM749.218 212.585C722.052 222.546 711.412 221.414 711.412 207.831C711.412 194.927 724.768 145.349 724.768 135.388C724.768 131.992 723.863 130.408 720.693 130.408C717.977 130.408 714.807 131.54 711.412 134.03L695.338 217.113H674.284L688.547 143.312C690.358 134.709 690.584 130.408 685.604 130.408C682.661 130.408 679.039 131.766 675.416 134.709C669.078 168.893 659.569 217.113 659.569 217.113H630.366C640.779 163.007 645.76 136.973 651.42 103.468L679.265 101.883L678.133 113.202C686.509 104.147 694.885 99.6193 701.903 99.6193C710.053 99.6193 714.128 104.6 713.902 115.919C724.316 105.053 734.729 99.6193 743.558 99.6193C752.614 99.6193 756.915 104.6 756.915 115.24C756.915 134.483 740.842 184.061 740.842 194.475C740.842 196.512 742.653 197.418 746.954 196.965L749.218 212.585ZM865.762 181.118C865.762 201.493 846.519 220.056 780.868 219.377L781.547 191.079C821.39 193.116 834.521 190.852 834.521 182.703C834.521 174.553 822.749 164.365 812.335 152.82C802.601 159.159 790.602 165.724 776.34 172.742L769.775 158.706C783.584 150.33 793.998 143.538 801.469 137.652C799.205 133.124 797.62 128.37 797.62 123.39C797.62 105.732 815.278 95.5444 832.031 95.5444C851.5 95.5444 859.876 110.712 837.237 133.351C846.972 146.707 865.762 162.554 865.762 181.118ZM899.223 264.201L882.017 244.053C935.671 206.699 949.48 179.533 949.48 149.198C949.48 126.106 940.198 102.11 912.806 70.6421L937.255 53.4368C968.044 90.7903 980.269 120.673 980.269 148.745C980.269 186.778 958.762 220.962 899.223 264.201Z" fill="black"/>
<defs>
<radialGradient id="paint0_diamond_43_8" cx="0" cy="0" r="1" gradientUnits="userSpaceOnUse" gradientTransform="translate(498.731 144.542) scale(498 136)">
<stop stop-color="#00FFE0"/>
<stop offset="0.575" stop-color="#3DE3E6"/>
<stop offset="0.795" stop-color="#DA257C"/>
<stop offset="1" stop-color="#FF006B"/>
</radialGradient>
</defs>
</svg>
